<svg width="23" height="19" viewBox="0 0 23 19" fill="none" xmlns="http://www.w3.org/2000/svg">
<path d="M7.23329 19C15.9129 19 20.6595 11.6908 20.6595 5.35298C20.6595 5.14532 20.6553 4.93872 20.6459 4.73292C21.5673 4.05595 22.3683 3.21094 23 2.24946C22.1545 2.63129 21.2447 2.88841 20.2902 3.00434C21.2643 2.4106 22.0125 1.47093 22.3654 0.35098C21.4535 0.900584 20.4437 1.29996 19.3691 1.51533C18.5077 0.583106 17.2813 0 15.9244 0C13.3182 0 11.2048 2.14816 11.2048 4.79593C11.2048 5.17244 11.2464 5.53831 11.327 5.88956C7.40542 5.68934 3.92781 3.78048 1.60068 0.878514C1.19495 1.58712 0.961353 2.41086 0.961353 3.28911C0.961353 4.95308 1.79452 6.42214 3.06142 7.28178C2.28736 7.25758 1.56014 7.04114 0.924206 6.68165C0.92316 6.7016 0.92316 6.7218 0.92316 6.74281C0.92316 9.06593 2.55 11.0054 4.70893 11.4449C4.31261 11.5547 3.89564 11.6137 3.46505 11.6137C3.16108 11.6137 2.86548 11.5829 2.57799 11.5273C3.17861 13.4327 4.92082 14.8196 6.98635 14.8587C5.37102 16.1454 3.33635 16.9119 1.12563 16.9119C0.745015 16.9119 0.369369 16.8899 0 16.8455C2.08829 18.2058 4.56793 19 7.23329 19Z" fill="white"/>
</svg>
